<svg width="96" height="53" viewBox="0 0 96 53" fill="none" xmlns="http://www.w3.org/2000/svg">
<path d="M5.73934 51.9548C0.960229 49.9365 -1.3261 44.3894 1.25556 39.8896C4.74031 33.8158 9.04008 28.2299 14.0461 23.2923C21.2868 16.1507 29.8631 10.5052 39.2855 6.6781C48.7079 2.85101 58.7918 0.917272 68.9616 0.987301C75.9928 1.03572 82.9698 2.04131 89.7029 3.96498C94.6911 5.39012 96.9204 10.9605 94.9021 15.7396C92.8839 20.5187 87.3791 22.6759 82.3394 21.4455C77.9274 20.3685 73.3949 19.8049 68.8322 19.7735C61.1295 19.7204 53.4918 21.1851 46.3551 24.0838C39.2185 26.9825 32.7227 31.2585 27.2385 36.6676C23.99 39.8716 21.1342 43.4361 18.7228 47.2846C15.9683 51.6808 10.5184 53.973 5.73934 51.9548Z" fill="#FDABAB"/>
</svg>
