<svg width="237" height="61" viewBox="0 0 237 61" fill="none" xmlns="http://www.w3.org/2000/svg">
<path d="M8.21045 23.2629C24.8084 42.8831 68.8456 70.3514 112.21 23.2629" stroke="#51D0DD" stroke-width="16.3408" stroke-linecap="round" stroke-linejoin="round"/>
<path d="M136.288 12.2052C136.129 12.2052 135.978 12.1831 135.834 12.1389C135.691 12.0947 135.556 11.9989 135.428 11.8515L131.248 7.20816L130.388 6.41217L126.231 1.85732C126.024 1.62147 125.913 1.37088 125.897 1.10555C125.881 0.825475 125.961 0.589625 126.136 0.397997C126.311 0.206369 126.574 0.110555 126.924 0.110555C127.306 0.110555 127.609 0.23585 127.832 0.486441L131.917 4.99707L132.538 5.52773L137.029 10.5027C137.268 10.768 137.379 11.0334 137.363 11.2987C137.363 11.5493 137.26 11.763 137.053 11.9399C136.861 12.1168 136.607 12.2052 136.288 12.2052ZM127.163 12.2052C126.845 12.2052 126.59 12.1168 126.399 11.9399C126.223 11.7483 126.136 11.5198 126.136 11.2545C126.136 10.9891 126.247 10.7238 126.47 10.4585L130.531 5.74884L131.821 7.42927L128.023 11.8515C127.784 12.0873 127.497 12.2052 127.163 12.2052ZM133.063 6.52273L131.415 5.21818L135.261 0.486441C135.388 0.339035 135.524 0.243221 135.667 0.198999C135.81 0.140036 135.97 0.110555 136.145 0.110555C136.495 0.110555 136.758 0.213739 136.933 0.420108C137.108 0.611736 137.188 0.847586 137.172 1.12766C137.172 1.40773 137.06 1.68043 136.838 1.94576L133.063 6.52273Z" fill="black"/>
<path d="M144.545 12.2937C142.825 12.2937 141.391 11.7999 140.245 10.8122C140.022 10.6059 139.926 10.3774 139.958 10.1268C139.99 9.86148 140.141 9.62562 140.412 9.41926C140.619 9.25711 140.858 9.19078 141.129 9.22026C141.399 9.235 141.662 9.33818 141.917 9.52981C142.267 9.79514 142.658 9.99414 143.087 10.1268C143.517 10.2447 144.003 10.3037 144.545 10.3037C145.389 10.3037 146.129 10.1268 146.766 9.77303C147.403 9.40452 147.897 8.91071 148.247 8.2916C148.613 7.67249 148.797 6.96494 148.797 6.16895C148.797 5.32873 148.621 4.59907 148.271 3.97997C147.921 3.36086 147.435 2.88179 146.814 2.54276C146.209 2.18898 145.492 2.0121 144.664 2.0121C143.502 2.0121 142.53 2.39535 141.75 3.16186C141.543 3.36823 141.296 3.5009 141.009 3.55986C140.739 3.60408 140.492 3.55249 140.269 3.40508C139.982 3.21346 139.807 2.99235 139.743 2.74176C139.695 2.49117 139.775 2.24795 139.982 2.0121C140.603 1.34877 141.304 0.854956 142.084 0.530663C142.865 0.191629 143.724 0.022112 144.664 0.022112C145.922 0.022112 147.037 0.287443 148.008 0.818104C148.98 1.33403 149.744 2.05632 150.302 2.98498C150.859 3.91364 151.138 4.97496 151.138 6.16895C151.138 7.33346 150.851 8.38004 150.278 9.3087C149.72 10.2226 148.948 10.9523 147.961 11.4977C146.973 12.0283 145.835 12.2937 144.545 12.2937ZM143.828 6.92072C143.494 6.92072 143.223 6.84702 143.016 6.69961C142.809 6.53747 142.705 6.33847 142.705 6.10262C142.705 5.85203 142.809 5.65303 143.016 5.50562C143.223 5.35822 143.494 5.28451 143.828 5.28451H149.346C149.68 5.28451 149.951 5.35822 150.158 5.50562C150.365 5.65303 150.469 5.85203 150.469 6.10262C150.469 6.33847 150.365 6.53747 150.158 6.69961C149.951 6.84702 149.68 6.92072 149.346 6.92072H143.828Z" fill="black"/>
<path d="M159.656 0.132666C159.894 0.132666 160.109 0.191628 160.301 0.309553C160.492 0.427478 160.643 0.611736 160.754 0.862327L165.675 10.7459C165.819 11.0407 165.835 11.3061 165.723 11.5419C165.612 11.763 165.42 11.9325 165.15 12.0505C164.799 12.1979 164.497 12.2347 164.242 12.161C163.987 12.0873 163.772 11.9031 163.597 11.6082L159.106 2.16687H160.324L155.69 11.6082C155.547 11.8883 155.332 12.0726 155.045 12.161C154.775 12.2347 154.472 12.1979 154.138 12.0505C153.835 11.9178 153.62 11.7409 153.493 11.5198C153.381 11.2987 153.405 11.0407 153.564 10.7459L158.509 0.862327C158.748 0.375887 159.13 0.132666 159.656 0.132666Z" fill="black"/>
<path d="M179.815 12.2273C179.464 12.2273 179.17 12.1242 178.931 11.9178C178.708 11.6967 178.596 11.424 178.596 11.0997V5.6604C178.596 4.82018 178.429 4.13474 178.095 3.60408C177.76 3.07342 177.306 2.68279 176.733 2.4322C176.176 2.16687 175.531 2.03421 174.798 2.03421C174.129 2.03421 173.524 2.1595 172.983 2.41009C172.441 2.66068 172.011 2.99972 171.693 3.42719C171.374 3.83993 171.215 4.319 171.215 4.86441H169.71C169.71 3.93575 169.949 3.11027 170.427 2.38798C170.921 1.65095 171.589 1.0687 172.433 0.641218C173.277 0.213739 174.225 0 175.276 0C176.375 0 177.354 0.221109 178.214 0.663328C179.09 1.09081 179.775 1.72465 180.269 2.56487C180.778 3.40508 181.033 4.43693 181.033 5.6604V11.0997C181.033 11.424 180.913 11.6967 180.675 11.9178C180.452 12.1242 180.165 12.2273 179.815 12.2273ZM169.997 12.2273C169.647 12.2273 169.352 12.1242 169.113 11.9178C168.89 11.6967 168.779 11.424 168.779 11.0997V1.23821C168.779 0.899178 168.89 0.626476 169.113 0.420108C169.352 0.213739 169.647 0.110555 169.997 0.110555C170.363 0.110555 170.658 0.213739 170.881 0.420108C171.104 0.626476 171.215 0.899178 171.215 1.23821V11.0997C171.215 11.424 171.104 11.6967 170.881 11.9178C170.658 12.1242 170.363 12.2273 169.997 12.2273Z" fill="black"/>
<path d="M190.555 12.3158C189.457 12.3158 188.469 12.102 187.593 11.6746C186.733 11.2324 186.049 10.5911 185.539 9.75092C185.045 8.9107 184.799 7.87886 184.799 6.65539V1.2161C184.799 0.891808 184.91 0.626476 185.133 0.420108C185.372 0.198999 185.666 0.0884436 186.017 0.0884436C186.367 0.0884436 186.654 0.198999 186.877 0.420108C187.116 0.626476 187.235 0.891808 187.235 1.2161V6.65539C187.235 7.48087 187.402 8.1663 187.737 8.71171C188.071 9.24237 188.525 9.64037 189.098 9.9057C189.672 10.1563 190.317 10.2816 191.033 10.2816C191.718 10.2816 192.323 10.1563 192.849 9.9057C193.39 9.65511 193.82 9.31607 194.139 8.88859C194.457 8.46112 194.616 7.98205 194.616 7.45138H196.121C196.121 8.3653 195.874 9.19078 195.381 9.92781C194.903 10.6648 194.242 11.2471 193.398 11.6746C192.57 12.102 191.622 12.3158 190.555 12.3158ZM195.835 12.2052C195.484 12.2052 195.19 12.102 194.951 11.8957C194.728 11.6746 194.616 11.4019 194.616 11.0776V1.2161C194.616 0.877067 194.728 0.604366 194.951 0.397997C195.19 0.191628 195.484 0.0884436 195.835 0.0884436C196.201 0.0884436 196.496 0.191628 196.718 0.397997C196.941 0.604366 197.053 0.877067 197.053 1.2161V11.0776C197.053 11.4019 196.941 11.6746 196.718 11.8957C196.496 12.102 196.201 12.2052 195.835 12.2052Z" fill="black"/>
<path d="M132.403 36.0985C131.126 36.0985 130.063 35.6744 129.214 34.8262C128.366 33.9554 127.942 32.8981 127.942 31.6541C127.942 30.3989 128.366 29.3471 129.214 28.499C130.063 27.6395 131.126 27.2098 132.403 27.2098C133.24 27.2098 133.992 27.4133 134.66 27.8205C135.327 28.2163 135.813 28.7534 136.118 29.432L135.202 29.9578C134.976 29.4489 134.609 29.0475 134.1 28.7534C133.602 28.4481 133.037 28.2954 132.403 28.2954C131.465 28.2954 130.673 28.6234 130.029 29.2793C129.384 29.9239 129.062 30.7155 129.062 31.6541C129.062 32.5814 129.384 33.3787 130.029 34.0459C130.673 34.6905 131.465 35.0128 132.403 35.0128C133.025 35.0128 133.585 34.8658 134.083 34.5718C134.592 34.2777 134.988 33.8706 135.27 33.3504L136.203 33.8933C135.853 34.5718 135.338 35.1089 134.66 35.5047C133.981 35.9006 133.229 36.0985 132.403 36.0985ZM141.646 27.2098C142.913 27.2098 143.925 27.6565 144.683 28.5499C145.463 29.432 145.853 30.478 145.853 31.688C145.853 31.7446 145.842 31.9199 145.819 32.2139H138.372C138.485 33.0621 138.847 33.7406 139.458 34.2495C140.069 34.7584 140.832 35.0128 141.748 35.0128C143.037 35.0128 143.948 34.5322 144.479 33.571L145.463 34.1477C145.09 34.7584 144.575 35.239 143.919 35.5896C143.275 35.9288 142.545 36.0985 141.731 36.0985C140.397 36.0985 139.311 35.68 138.474 34.8432C137.637 34.0063 137.219 32.9433 137.219 31.6541C137.219 30.3762 137.632 29.3189 138.457 28.482C139.283 27.6339 140.346 27.2098 141.646 27.2098ZM141.646 28.2954C140.764 28.2954 140.023 28.5555 139.424 29.0757C138.836 29.5959 138.485 30.2801 138.372 31.1283H144.7C144.575 30.2236 144.23 29.5281 143.665 29.0418C143.077 28.5442 142.404 28.2954 141.646 28.2954ZM146.285 27.4133H153.409V28.499H150.407V35.8949H149.287V28.499H146.285V27.4133ZM155.893 30.6363H158.217C158.998 30.6363 159.665 30.8851 160.219 31.3827C160.773 31.869 161.05 32.4966 161.05 33.2656C161.05 34.0459 160.773 34.6792 160.219 35.1655C159.687 35.6518 159.02 35.8949 158.217 35.8949H154.774V27.4133H155.893V30.6363ZM155.893 34.8093H158.217C158.703 34.8093 159.111 34.6679 159.439 34.3852C159.767 34.0912 159.93 33.718 159.93 33.2656C159.93 32.8133 159.767 32.4457 159.439 32.163C159.111 31.869 158.703 31.722 158.217 31.722H155.893V34.8093ZM129.333 46.4133H135.406V54.8949H134.286V47.499H130.453V51.2818C130.453 52.6953 130.181 53.6679 129.639 54.1994C129.107 54.7309 128.372 54.9627 127.433 54.8949V53.8432C128.089 53.911 128.57 53.7527 128.875 53.3682C129.181 52.9837 129.333 52.2882 129.333 51.2818V46.4133ZM145.072 48.0757V46.4133H146.191V54.8949H145.072V53.2325C144.291 54.4765 143.149 55.0985 141.645 55.0985C140.435 55.0985 139.4 54.6687 138.541 53.8093C137.693 52.9498 137.269 51.8981 137.269 50.6541C137.269 49.4102 137.693 48.3584 138.541 47.499C139.4 46.6395 140.435 46.2098 141.645 46.2098C143.149 46.2098 144.291 46.8318 145.072 48.0757ZM139.355 53.0459C140 53.6905 140.791 54.0128 141.73 54.0128C142.669 54.0128 143.46 53.6905 144.105 53.0459C144.749 52.3787 145.072 51.5814 145.072 50.6541C145.072 49.7155 144.749 48.9239 144.105 48.2793C143.46 47.6234 142.669 47.2954 141.73 47.2954C140.791 47.2954 140 47.6234 139.355 48.2793C138.71 48.9239 138.388 49.7155 138.388 50.6541C138.388 51.5814 138.71 52.3787 139.355 53.0459ZM152.327 55.0985C151.117 55.0985 150.1 54.697 149.274 53.8941C148.46 53.0798 148.053 52.0281 148.053 50.7389C148.053 49.2914 148.268 48.1832 148.697 47.4142C149.127 46.6339 149.998 45.9271 151.31 45.2938C151.728 45.1015 152.056 44.9545 152.294 44.8527C152.689 44.6944 153 44.5587 153.226 44.4456C154.21 43.9933 154.708 43.4335 154.719 42.7663L155.601 43.2752C155.545 43.5579 155.454 43.8123 155.33 44.0385C155.183 44.2873 155.036 44.4852 154.889 44.6322C154.753 44.7792 154.538 44.9376 154.244 45.1072C154.052 45.2203 153.82 45.3447 153.549 45.4804L152.701 45.8366L151.903 46.1759C151.123 46.5151 150.541 46.8714 150.156 47.2445C149.783 47.6064 149.517 48.0814 149.359 48.6694C149.721 48.1832 150.196 47.8156 150.784 47.5668C151.372 47.3067 151.966 47.1767 152.565 47.1767C153.696 47.1767 154.629 47.5499 155.364 48.2963C156.11 49.0313 156.483 49.9756 156.483 51.1291C156.483 52.2713 156.088 53.2212 155.296 53.9789C154.516 54.7253 153.526 55.0985 152.327 55.0985ZM150.122 53.1477C150.71 53.7018 151.445 53.9789 152.327 53.9789C153.21 53.9789 153.933 53.7131 154.499 53.1816C155.075 52.6388 155.364 51.9546 155.364 51.1291C155.364 50.2922 155.092 49.6081 154.55 49.0766C154.018 48.5337 153.306 48.2623 152.412 48.2623C151.609 48.2623 150.88 48.5168 150.224 49.0257C149.568 49.5119 149.24 50.1792 149.24 51.0273C149.24 51.8868 149.534 52.5936 150.122 53.1477ZM165.294 53.8262C164.423 54.6744 163.371 55.0985 162.139 55.0985C160.883 55.0985 159.826 54.6744 158.967 53.8262C158.107 52.9668 157.677 51.9094 157.677 50.6541C157.677 49.3989 158.107 48.3471 158.967 47.499C159.826 46.6395 160.883 46.2098 162.139 46.2098C163.383 46.2098 164.434 46.6395 165.294 47.499C166.165 48.3471 166.6 49.3989 166.6 50.6541C166.6 51.8981 166.165 52.9554 165.294 53.8262ZM159.764 53.0459C160.408 53.6905 161.2 54.0128 162.139 54.0128C163.077 54.0128 163.869 53.6905 164.513 53.0459C165.158 52.3787 165.48 51.5814 165.48 50.6541C165.48 49.7155 165.158 48.9239 164.513 48.2793C163.869 47.6234 163.077 47.2954 162.139 47.2954C161.2 47.2954 160.408 47.6234 159.764 48.2793C159.119 48.9239 158.797 49.7155 158.797 50.6541C158.797 51.5814 159.119 52.3787 159.764 53.0459ZM173.02 46.2098C174.23 46.2098 175.259 46.6395 176.107 47.499C176.966 48.3584 177.396 49.4102 177.396 50.6541C177.396 51.8981 176.966 52.9498 176.107 53.8093C175.259 54.6687 174.23 55.0985 173.02 55.0985C171.515 55.0985 170.373 54.4765 169.593 53.2325V58.2875H168.473V46.4133H169.593V48.0757C170.373 46.8318 171.515 46.2098 173.02 46.2098ZM170.56 53.0459C171.204 53.6905 171.996 54.0128 172.935 54.0128C173.873 54.0128 174.665 53.6905 175.31 53.0459C175.954 52.3787 176.276 51.5814 176.276 50.6541C176.276 49.7155 175.954 48.9239 175.31 48.2793C174.665 47.6234 173.873 47.2954 172.935 47.2954C171.996 47.2954 171.204 47.6234 170.56 48.2793C169.915 48.9239 169.593 49.7155 169.593 50.6541C169.593 51.5814 169.915 52.3787 170.56 53.0459ZM186.552 48.0757V46.4133H187.671V54.8949H186.552V53.2325C185.771 54.4765 184.629 55.0985 183.125 55.0985C181.915 55.0985 180.88 54.6687 180.021 53.8093C179.173 52.9498 178.749 51.8981 178.749 50.6541C178.749 49.4102 179.173 48.3584 180.021 47.499C180.88 46.6395 181.915 46.2098 183.125 46.2098C184.629 46.2098 185.771 46.8318 186.552 48.0757ZM180.835 53.0459C181.48 53.6905 182.271 54.0128 183.21 54.0128C184.149 54.0128 184.94 53.6905 185.585 53.0459C186.229 52.3787 186.552 51.5814 186.552 50.6541C186.552 49.7155 186.229 48.9239 185.585 48.2793C184.94 47.6234 184.149 47.2954 183.21 47.2954C182.271 47.2954 181.48 47.6234 180.835 48.2793C180.191 48.9239 179.868 49.7155 179.868 50.6541C179.868 51.5814 180.191 52.3787 180.835 53.0459ZM189.024 46.4133H196.148V47.499H193.146V54.8949H192.026V47.499H189.024V46.4133ZM204.289 53.8262C203.418 54.6744 202.367 55.0985 201.134 55.0985C199.879 55.0985 198.821 54.6744 197.962 53.8262C197.102 52.9668 196.673 51.9094 196.673 50.6541C196.673 49.3989 197.102 48.3471 197.962 47.499C198.821 46.6395 199.879 46.2098 201.134 46.2098C202.378 46.2098 203.43 46.6395 204.289 47.499C205.16 48.3471 205.595 49.3989 205.595 50.6541C205.595 51.8981 205.16 52.9554 204.289 53.8262ZM198.759 53.0459C199.404 53.6905 200.195 54.0128 201.134 54.0128C202.072 54.0128 202.864 53.6905 203.509 53.0459C204.153 52.3787 204.476 51.5814 204.476 50.6541C204.476 49.7155 204.153 48.9239 203.509 48.2793C202.864 47.6234 202.072 47.2954 201.134 47.2954C200.195 47.2954 199.404 47.6234 198.759 48.2793C198.114 48.9239 197.792 49.7155 197.792 50.6541C197.792 51.5814 198.114 52.3787 198.759 53.0459ZM212.015 46.2098C213.225 46.2098 214.254 46.6395 215.102 47.499C215.962 48.3584 216.391 49.4102 216.391 50.6541C216.391 51.8981 215.962 52.9498 215.102 53.8093C214.254 54.6687 213.225 55.0985 212.015 55.0985C210.511 55.0985 209.369 54.4765 208.588 53.2325V58.2875H207.469V46.4133H208.588V48.0757C209.369 46.8318 210.511 46.2098 212.015 46.2098ZM209.555 53.0459C210.2 53.6905 210.991 54.0128 211.93 54.0128C212.869 54.0128 213.66 53.6905 214.305 53.0459C214.949 52.3787 215.272 51.5814 215.272 50.6541C215.272 49.7155 214.949 48.9239 214.305 48.2793C213.66 47.6234 212.869 47.2954 211.93 47.2954C210.991 47.2954 210.2 47.6234 209.555 48.2793C208.911 48.9239 208.588 49.7155 208.588 50.6541C208.588 51.5814 208.911 52.3787 209.555 53.0459ZM219.372 52.9441L224.427 46.4133H225.377V54.8949H224.258V48.3641L219.203 54.8949H218.253V46.4133H219.372V52.9441ZM233.512 45.0563H229.102V44.0724H233.512V45.0563ZM228.864 52.9441L233.919 46.4133H234.869V54.8949H233.75V48.3641L228.695 54.8949H227.745V46.4133H228.864V52.9441Z" fill="#079DB7"/>
</svg>
