<svg width="12" height="10" viewBox="0 0 12 10" fill="none" xmlns="http://www.w3.org/2000/svg">
<path d="M1.955 4.22718H1.95482H1.09823C0.887492 4.22718 0.778112 4.46944 0.902619 4.62955L0.902668 4.62961L4.25915 8.94118L4.2592 8.94123C4.47634 9.21989 4.89398 9.21914 5.11188 8.94168L5.11229 8.94116L11.0965 1.25223C11.0967 1.25203 11.0968 1.25182 11.097 1.25161C11.2239 1.09058 11.1099 0.85 10.9018 0.85H10.0452C9.87875 0.85 9.72096 0.927341 9.61898 1.05977C9.61887 1.05991 9.61877 1.06005 9.61866 1.06019L4.68511 7.39711L2.38086 4.43675C2.38084 4.43672 2.38081 4.43669 2.38079 4.43666C2.3303 4.37169 2.26582 4.31898 2.19208 4.28264C2.11829 4.24628 2.03723 4.22729 1.955 4.22718Z" fill="white" stroke="white" stroke-width="0.3"/>
</svg>
