<svg width="102" height="64" viewBox="0 0 102 64" fill="none" xmlns="http://www.w3.org/2000/svg">
<path d="M94.8466 2.01731C100.73 4.71214 103.374 11.7141 99.9872 17.2285C95.4155 24.6719 89.8457 31.4764 83.4195 37.4462C74.1248 46.0808 63.2204 52.8001 51.3289 57.2205C39.4375 61.6408 26.7918 63.6757 14.1139 63.2089C5.34854 62.8862 -3.31351 61.372 -11.6371 58.7222C-17.8036 56.7591 -20.3754 49.7303 -17.6806 43.8466C-14.9858 37.9629 -8.04147 35.4785 -1.80334 37.2007C3.65773 38.7083 9.28822 39.5801 14.9762 39.7895C24.5786 40.1431 34.1566 38.6018 43.1633 35.2538C52.1701 31.9057 60.4292 26.8164 67.4691 20.2765C71.6392 16.4026 75.3331 12.0647 78.4834 7.35599C82.0819 1.97729 88.9629 -0.67752 94.8466 2.01731Z" fill="#FDABAB"/>
</svg>
