<svg width="93" height="50" viewBox="0 0 93 50" fill="none" xmlns="http://www.w3.org/2000/svg">
<path d="M91.9521 35.2668C93.9233 39.854 91.8115 45.2283 87.0196 46.63C80.5513 48.522 73.8428 49.5319 67.0763 49.621C57.2895 49.7498 47.5731 47.9497 38.4819 44.3234C29.3908 40.6972 21.1029 35.3158 14.0915 28.4866C9.24387 23.765 5.07207 18.4151 1.6817 12.5908C-0.830053 8.27582 1.33677 2.92348 5.92395 0.952283C10.5111 -1.01891 15.7699 1.1542 18.4474 5.36834C20.7913 9.05755 23.5612 12.4707 26.7069 15.5347C32.0174 20.7072 38.2948 24.7831 45.1806 27.5297C52.0663 30.2763 59.4256 31.6397 66.8383 31.5421C71.2292 31.4843 75.5878 30.9145 79.8274 29.8513C84.6702 28.6368 89.9809 30.6797 91.9521 35.2668Z" fill="#FDCAAB"/>
</svg>
