<?xml version="1.0" encoding="utf-8"?><svg width="412" height="376" viewBox="0 0 412 376" xmlns="http://www.w3.org/2000/svg" xmlns:xlink="http://www.w3.org/1999/xlink"><svg width="11" height="22" fill="none" viewBox="0 0 11 22" id="arrow" x="398" y="166" xmlns="http://www.w3.org/2000/svg"><path d="M9 18.5l-6-7 6-7" stroke="#1C2223" stroke-width="2" stroke-linecap="round" stroke-linejoin="round"/></svg><svg width="24" height="24" fill="none" viewBox="0 0 24 24" id="exit" x="339" y="201" xmlns="http://www.w3.org/2000/svg"><path d="M15 12H3m.947 4C5.42 18.961 8.468 21 12 21a9 9 0 009-9 9 9 0 00-9-9C8.468 3 5.42 5.039 3.947 8" stroke="#1C2223" stroke-width="1.5" stroke-linecap="round" stroke-linejoin="round"/><path d="M12 9l3 3-3 3" stroke="#1C2223" stroke-width="1.5" stroke-linecap="round" stroke-linejoin="round"/></svg><svg width="59" height="35" fill="none" viewBox="0 0 59 35" id="line-min1" x="339" y="166" xmlns="http://www.w3.org/2000/svg"><path d="M4.671 34.396c-3.005-1.044-4.626-4.347-3.226-7.204A47.487 47.487 0 0154.127 1.674c3.11.673 4.696 3.992 3.652 6.997-1.043 3.005-4.325 4.545-7.458 3.994a35.963 35.963 0 00-33.106 11.517 35.97 35.97 0 00-4.787 6.837c-1.51 2.8-4.752 4.42-7.757 3.377z" fill="#FDCAAB"/></svg><svg width="95" height="93" fill="none" viewBox="0 0 95 93" id="line-min2" y="283" xmlns="http://www.w3.org/2000/svg"><path d="M57.985 4.456c.843-3.085 4.046-4.935 7.007-3.725A47.744 47.744 0 11.138 54.434c-.637-3.134 1.778-5.936 4.966-6.19 3.188-.252 5.932 2.147 6.69 5.255A36.161 36.161 0 1061.9 12.008c-2.912-1.324-4.757-4.467-3.914-7.553z" fill="#ABDFFD"/></svg><svg width="96" height="53" fill="none" viewBox="0 0 96 53" id="line1" x="237" y="230" xmlns="http://www.w3.org/2000/svg"><path d="M5.74 51.955C.96 49.937-1.327 44.389 1.255 39.89A77.445 77.445 0 0189.703 3.965c4.988 1.425 7.217 6.995 5.2 11.775-2.02 4.779-7.524 6.936-12.564 5.705a58.66 58.66 0 00-63.616 25.84c-2.755 4.396-8.205 6.688-12.984 4.67z" fill="#FDABAB"/></svg><svg width="93" height="50" fill="none" viewBox="0 0 93 50" id="line2" x="95" y="283" xmlns="http://www.w3.org/2000/svg"><path d="M91.952 35.267c1.971 4.587-.14 9.961-4.932 11.363A74.533 74.533 0 011.682 12.59C-.83 8.277 1.337 2.924 5.924.953c4.587-1.97 9.846.202 12.523 4.416a56.451 56.451 0 0061.38 24.483c4.843-1.214 10.154.829 12.125 5.416z" fill="#FDCAAB"/></svg><svg width="222" height="222" fill="none" viewBox="0 0 222 222" id="line3" y="61" xmlns="http://www.w3.org/2000/svg"><path d="M163.319 64.171c4.025-3.534 10.208-3.165 13.23 1.257a79.952 79.952 0 012.958 85.537A79.954 79.954 0 1168.681 42.406c4.564-2.803 10.359-.616 12.59 4.253 2.23 4.87.033 10.565-4.418 13.543a60.558 60.558 0 1084.97 18.136c-2.848-4.537-2.528-10.632 1.496-14.167z" fill="#FDCAAB"/><path d="M86.72 145.551c-2.388 4.119-1 9.471 3.458 11.145a51.833 51.833 0 0070.009-46.235c.211-4.756-4.165-8.135-8.891-7.555-4.726.579-7.976 4.925-8.58 9.648a34.6 34.6 0 01-15.251 24.481 34.594 34.594 0 01-28.502 4.414c-4.581-1.299-9.854-.016-12.243 4.102z" fill="#FDCAAB"/></svg><svg width="102" height="64" fill="none" viewBox="0 0 102 64" id="line4" x="237" y="166" xmlns="http://www.w3.org/2000/svg"><path d="M94.847 2.017c5.883 2.695 8.527 9.697 5.14 15.212A96.604 96.604 0 01-11.637 58.722c-6.167-1.963-8.738-8.992-6.044-14.875 2.695-5.884 9.64-8.369 15.878-6.646A73.17 73.17 0 0078.483 7.356c3.599-5.379 10.48-8.034 16.364-5.339z" fill="#FDABAB"/></svg><svg width="175" height="166" fill="none" viewBox="0 0 175 166" id="line5" x="237" xmlns="http://www.w3.org/2000/svg"><path d="M115.258 6.848c2.145-5.433 8.329-8.154 13.463-5.368a87.197 87.197 0 0145.139 67.66A87.202 87.202 0 11.281 86.067c-.532-5.817 4.41-10.423 10.25-10.248 5.838.176 10.342 5.078 11.1 10.87A66.048 66.048 0 10120.86 21.34c-5.021-2.984-7.747-9.058-5.602-14.492z" fill="#ABDFFD"/></svg><svg width="237" height="61" fill="none" viewBox="0 0 237 61" id="logo" xmlns="http://www.w3.org/2000/svg"><path d="M8.21 23.263c16.598 19.62 60.636 47.088 104 0" stroke="#51D0DD" stroke-width="16.341" stroke-linecap="round" stroke-linejoin="round"/><path d="M136.288 12.205c-.159 0-.31-.022-.454-.066a.9.9 0 01-.406-.287l-4.18-4.644-.86-.796-4.157-4.555c-.207-.236-.318-.486-.334-.751a.927.927 0 01.239-.708c.175-.192.438-.287.788-.287.382 0 .685.125.908.375l4.085 4.511.621.53 4.491 4.976c.239.265.35.53.334.796 0 .25-.103.464-.31.64-.192.178-.446.266-.765.266zm-9.125 0c-.318 0-.573-.088-.764-.265a.978.978 0 01-.263-.685c0-.266.111-.531.334-.796l4.061-4.71 1.29 1.68-3.798 4.422a1.182 1.182 0 01-.86.354zm5.9-5.682l-1.648-1.305 3.846-4.732a.896.896 0 01.406-.287c.143-.059.303-.088.478-.088.35 0 .613.103.788.31a.927.927 0 01.239.707c0 .28-.112.552-.334.818l-3.775 4.577zm11.482 5.771c-1.72 0-3.154-.494-4.3-1.482-.223-.206-.319-.435-.287-.685.032-.266.183-.501.454-.708a.952.952 0 01.717-.199c.27.015.533.118.788.31.35.265.741.464 1.17.597.43.118.916.177 1.458.177.844 0 1.584-.177 2.221-.531a3.919 3.919 0 001.481-1.481c.366-.62.55-1.327.55-2.123 0-.84-.176-1.57-.526-2.189a3.656 3.656 0 00-1.457-1.437c-.605-.354-1.322-.53-2.15-.53-1.162 0-2.134.382-2.914 1.149a1.438 1.438 0 01-.741.398 1.003 1.003 0 01-.74-.155c-.287-.192-.462-.413-.526-.663-.048-.25.032-.494.239-.73a6.045 6.045 0 012.102-1.481c.781-.34 1.64-.509 2.58-.509 1.258 0 2.373.265 3.344.796a5.79 5.79 0 012.294 2.167c.557.929.836 1.99.836 3.184 0 1.164-.287 2.211-.86 3.14-.558.914-1.33 1.643-2.317 2.189-.988.53-2.126.796-3.416.796zm-.717-5.373c-.334 0-.605-.074-.812-.221-.207-.163-.311-.362-.311-.597 0-.251.104-.45.311-.597.207-.148.478-.221.812-.221h5.518c.334 0 .605.073.812.22a.696.696 0 01.311.598c0 .235-.104.434-.311.597-.207.147-.478.22-.812.22h-5.518zM159.656.133c.238 0 .453.059.645.177.191.117.342.302.453.552l4.921 9.884c.144.295.16.56.048.796-.111.221-.303.39-.573.508-.351.148-.653.185-.908.111s-.47-.258-.645-.553l-4.491-9.441h1.218l-4.634 9.441a1.05 1.05 0 01-.645.553c-.27.074-.573.037-.907-.11-.303-.133-.518-.31-.645-.531-.112-.221-.088-.48.071-.774l4.945-9.884c.239-.486.621-.73 1.147-.73zm20.159 12.094c-.351 0-.645-.103-.884-.31a1.107 1.107 0 01-.335-.817V5.66c0-.84-.167-1.525-.501-2.056a2.997 2.997 0 00-1.362-1.172c-.557-.265-1.202-.398-1.935-.398-.669 0-1.274.126-1.815.376-.542.25-.972.59-1.29 1.017a2.284 2.284 0 00-.478 1.437h-1.505c0-.928.239-1.754.717-2.476.494-.737 1.162-1.32 2.006-1.747.844-.427 1.792-.641 2.843-.641 1.099 0 2.078.221 2.938.663a4.752 4.752 0 012.055 1.902c.509.84.764 1.872.764 3.095v5.44c0 .324-.12.597-.358.818-.223.206-.51.31-.86.31zm-9.818 0c-.35 0-.645-.103-.884-.31a1.106 1.106 0 01-.334-.817V1.238c0-.339.111-.612.334-.818.239-.206.534-.31.884-.31.366 0 .661.104.884.31.223.206.334.48.334.818V11.1c0 .324-.111.597-.334.818-.223.206-.518.31-.884.31zm20.558.089c-1.098 0-2.086-.214-2.962-.641a5.083 5.083 0 01-2.054-1.924c-.494-.84-.74-1.872-.74-3.096V1.216c0-.324.111-.59.334-.796.239-.221.533-.332.884-.332.35 0 .637.111.86.332.239.206.358.472.358.796v5.44c0 .825.167 1.51.502 2.056.334.53.788.928 1.361 1.194.574.25 1.219.376 1.935.376.685 0 1.29-.126 1.816-.376.541-.25.971-.59 1.29-1.017.318-.428.477-.907.477-1.438h1.505c0 .914-.247 1.74-.74 2.477-.478.737-1.139 1.32-1.983 1.747-.828.427-1.776.64-2.843.64zm5.28-.11c-.351 0-.645-.104-.884-.31a1.107 1.107 0 01-.335-.818V1.216c0-.339.112-.612.335-.818.239-.206.533-.31.884-.31.366 0 .661.104.883.31.223.206.335.48.335.818v9.862c0 .324-.112.597-.335.818-.222.206-.517.31-.883.31z" fill="#000"/><path d="M132.403 36.099c-1.277 0-2.34-.425-3.189-1.273-.848-.87-1.272-1.928-1.272-3.172 0-1.255.424-2.307 1.272-3.155.849-.86 1.912-1.29 3.189-1.29.837 0 1.589.204 2.257.611a3.521 3.521 0 011.458 1.612l-.916.526a2.577 2.577 0 00-1.102-1.205 3.18 3.18 0 00-1.697-.458c-.938 0-1.73.328-2.374.984-.645.645-.967 1.436-.967 2.375 0 .927.322 1.725.967 2.392.644.645 1.436.967 2.374.967.622 0 1.182-.147 1.68-.441a3.078 3.078 0 001.187-1.222l.933.543a3.918 3.918 0 01-1.543 1.612 4.398 4.398 0 01-2.257.593zm9.243-8.89c1.267 0 2.279.448 3.037 1.34.78.883 1.17 1.929 1.17 3.139 0 .057-.011.232-.034.526h-7.447c.113.848.475 1.527 1.086 2.035.611.51 1.374.764 2.29.764 1.289 0 2.2-.48 2.731-1.442l.984.577a3.953 3.953 0 01-1.544 1.442c-.644.339-1.374.508-2.188.508-1.334 0-2.42-.418-3.257-1.255-.837-.837-1.255-1.9-1.255-3.189 0-1.278.413-2.335 1.238-3.172.826-.848 1.889-1.272 3.189-1.272zm0 1.086c-.882 0-1.623.26-2.222.78-.588.52-.939 1.205-1.052 2.053h6.328c-.125-.904-.47-1.6-1.035-2.086a3.037 3.037 0 00-2.019-.747zm4.639-.882h7.124V28.5h-3.002v7.396h-1.12V28.5h-3.002v-1.086zm9.608 3.223h2.324c.781 0 1.448.25 2.002.747.554.486.831 1.114.831 1.883 0 .78-.277 1.413-.831 1.9-.532.486-1.199.729-2.002.729h-3.443v-8.482h1.119v3.223zm0 4.173h2.324c.486 0 .894-.141 1.222-.424.328-.294.491-.667.491-1.12 0-.452-.163-.82-.491-1.102-.328-.294-.736-.441-1.222-.441h-2.324v3.087zm-26.56 11.604h6.073v8.482h-1.12v-7.396h-3.833v3.783c0 1.413-.272 2.386-.814 2.917-.532.532-1.267.764-2.206.696v-1.052c.656.068 1.137-.09 1.442-.475.306-.384.458-1.08.458-2.086v-4.869zm15.739 1.663v-1.663h1.119v8.482h-1.119v-1.663c-.781 1.245-1.923 1.867-3.427 1.867-1.21 0-2.245-.43-3.104-1.29-.848-.86-1.272-1.91-1.272-3.155 0-1.244.424-2.296 1.272-3.155.859-.86 1.894-1.29 3.104-1.29 1.504 0 2.646.623 3.427 1.867zm-5.717 4.97c.645.645 1.436.967 2.375.967.939 0 1.73-.322 2.375-.967a3.325 3.325 0 00.967-2.392c0-.939-.323-1.73-.967-2.375-.645-.656-1.436-.984-2.375-.984-.939 0-1.73.328-2.375.984-.645.645-.967 1.436-.967 2.375 0 .927.322 1.725.967 2.392zm12.972 2.053c-1.21 0-2.227-.402-3.053-1.205-.814-.814-1.221-1.866-1.221-3.155 0-1.448.215-2.556.644-3.325.43-.78 1.301-1.487 2.613-2.12.418-.192.746-.34.984-.441.395-.159.706-.294.932-.407.984-.453 1.482-1.012 1.493-1.68l.882.51a2.649 2.649 0 01-.271.762 2.994 2.994 0 01-.441.594c-.136.147-.351.306-.645.475-.192.113-.424.238-.695.373l-.848.357-.798.339c-.78.34-1.362.695-1.747 1.069-.373.361-.639.836-.797 1.424a3.38 3.38 0 011.425-1.102 4.368 4.368 0 011.781-.39c1.131 0 2.064.373 2.799 1.12.746.734 1.119 1.679 1.119 2.832 0 1.142-.395 2.092-1.187 2.85-.78.746-1.77 1.12-2.969 1.12zm-2.205-1.951c.588.554 1.323.83 2.205.83.883 0 1.606-.265 2.172-.796.576-.543.865-1.227.865-2.053 0-.837-.272-1.52-.814-2.052-.532-.543-1.244-.815-2.138-.815-.803 0-1.532.255-2.188.764-.656.486-.984 1.153-.984 2.001 0 .86.294 1.567.882 2.12zm15.172.678c-.871.848-1.923 1.273-3.155 1.273-1.256 0-2.313-.425-3.172-1.273-.86-.86-1.29-1.917-1.29-3.172 0-1.255.43-2.307 1.29-3.155.859-.86 1.916-1.29 3.172-1.29 1.244 0 2.295.43 3.155 1.29.871.848 1.306 1.9 1.306 3.155 0 1.244-.435 2.301-1.306 3.172zm-5.53-.78c.644.645 1.436.967 2.375.967.938 0 1.73-.322 2.374-.967a3.32 3.32 0 00.967-2.392c0-.939-.322-1.73-.967-2.375-.644-.656-1.436-.984-2.374-.984-.939 0-1.731.328-2.375.984-.645.645-.967 1.436-.967 2.375 0 .927.322 1.725.967 2.392zm13.256-6.836c1.21 0 2.239.43 3.087 1.289.859.86 1.289 1.911 1.289 3.155 0 1.244-.43 2.296-1.289 3.155-.848.86-1.877 1.29-3.087 1.29-1.505 0-2.647-.622-3.427-1.866v5.055h-1.12V46.413h1.12v1.663c.78-1.244 1.922-1.866 3.427-1.866zm-2.46 6.836c.644.645 1.436.967 2.375.967.938 0 1.73-.322 2.375-.967a3.324 3.324 0 00.966-2.392c0-.939-.322-1.73-.966-2.375-.645-.656-1.437-.984-2.375-.984-.939 0-1.731.328-2.375.984-.645.645-.967 1.436-.967 2.375 0 .927.322 1.725.967 2.392zm15.992-4.97v-1.663h1.119v8.482h-1.119v-1.663c-.781 1.245-1.923 1.867-3.427 1.867-1.21 0-2.245-.43-3.104-1.29-.848-.86-1.272-1.91-1.272-3.155 0-1.244.424-2.296 1.272-3.155.859-.86 1.894-1.29 3.104-1.29 1.504 0 2.646.623 3.427 1.867zm-5.717 4.97c.645.645 1.436.967 2.375.967.939 0 1.73-.322 2.375-.967a3.325 3.325 0 00.967-2.392c0-.939-.323-1.73-.967-2.375-.645-.656-1.436-.984-2.375-.984-.939 0-1.73.328-2.375.984-.644.645-.967 1.436-.967 2.375 0 .927.323 1.725.967 2.392zm8.189-6.633h7.124V47.5h-3.002v7.396h-1.12V47.5h-3.002v-1.086zm15.265 7.413c-.871.848-1.922 1.273-3.155 1.273-1.255 0-2.313-.425-3.172-1.273-.86-.86-1.289-1.917-1.289-3.172 0-1.255.429-2.307 1.289-3.155.859-.86 1.917-1.29 3.172-1.29 1.244 0 2.296.43 3.155 1.29.871.848 1.306 1.9 1.306 3.155 0 1.244-.435 2.301-1.306 3.172zm-5.53-.78c.645.645 1.436.967 2.375.967.938 0 1.73-.322 2.375-.967a3.325 3.325 0 00.967-2.392c0-.939-.323-1.73-.967-2.375-.645-.656-1.437-.984-2.375-.984-.939 0-1.73.328-2.375.984-.645.645-.967 1.436-.967 2.375 0 .927.322 1.725.967 2.392zm13.256-6.836c1.21 0 2.239.43 3.087 1.289.86.86 1.289 1.911 1.289 3.155 0 1.244-.429 2.296-1.289 3.155-.848.86-1.877 1.29-3.087 1.29-1.504 0-2.646-.622-3.427-1.866v5.055h-1.119V46.413h1.119v1.663c.781-1.244 1.923-1.866 3.427-1.866zm-2.46 6.836c.645.645 1.436.967 2.375.967.939 0 1.73-.322 2.375-.967a3.325 3.325 0 00.967-2.392c0-.939-.323-1.73-.967-2.375-.645-.656-1.436-.984-2.375-.984-.939 0-1.73.328-2.375.984-.644.645-.967 1.436-.967 2.375 0 .927.323 1.725.967 2.392zm9.817-.102l5.055-6.53h.95v8.48h-1.119v-6.53l-5.055 6.53h-.95v-8.48h1.119v6.53zm14.14-7.888h-4.41v-.984h4.41v.984zm-4.648 7.888l5.055-6.53h.95v8.48h-1.119v-6.53l-5.055 6.53h-.95v-8.48h1.119v6.53z" fill="#079DB7"/></svg></svg>