<svg width="24" height="24" viewBox="0 0 24 24" fill="none" xmlns="http://www.w3.org/2000/svg">
<path d="M14.6664 11.3328L12.0001 14.0004L9.33374 11.3328" stroke="#079DB7" stroke-width="1.5" stroke-linecap="round" stroke-linejoin="round"/>
<path d="M12.0001 6.00012V14.0003" stroke="#079DB7" stroke-width="1.5" stroke-linecap="round" stroke-linejoin="round"/>
<path d="M18.75 15.3334C18.75 14.9192 18.4142 14.5834 18 14.5834C17.5858 14.5834 17.25 14.9192 17.25 15.3334H18.75ZM8.66779 17.9997V17.2497L8.66745 17.2497L8.66779 17.9997ZM6.75024 15.3334C6.75024 14.9192 6.41446 14.5834 6.00024 14.5834C5.58603 14.5834 5.25024 14.9192 5.25024 15.3334H6.75024ZM17.25 15.3334C17.25 16.3917 16.392 17.2497 15.3336 17.2497V18.7497C17.2204 18.7497 18.75 17.2202 18.75 15.3334H17.25ZM15.3336 17.2497H8.66779V18.7497H15.3336V17.2497ZM8.66745 17.2497C8.15905 17.2499 7.6714 17.0481 7.31183 16.6887L6.25141 17.7496C6.89243 18.3904 7.76179 18.7501 8.66812 18.7497L8.66745 17.2497ZM7.31183 16.6887C6.95226 16.3293 6.75024 15.8418 6.75024 15.3334H5.25024C5.25024 16.2397 5.61039 17.1089 6.25141 17.7496L7.31183 16.6887Z" fill="#079DB7"/>
</svg>
