<svg width="34" height="32" viewBox="0 0 34 32" fill="none" xmlns="http://www.w3.org/2000/svg">
<path d="M17.0024 17.6554C21.8596 17.6554 25.8301 13.6849 25.8301 8.82768C25.8301 3.9705 21.8596 0 17.0024 0C12.1452 0 8.1748 3.9705 8.1748 8.82768C8.1748 13.6849 12.1453 17.6554 17.0024 17.6554Z" fill="#E5E6E9"/>
<path d="M32.152 24.7098C31.9207 24.1315 31.6124 23.5919 31.2654 23.0907C29.4922 20.4694 26.7553 18.7347 23.6714 18.3107C23.2859 18.2721 22.8619 18.3492 22.5535 18.5805C20.9344 19.7755 19.007 20.3923 17.0024 20.3923C14.9978 20.3923 13.0704 19.7755 11.4514 18.5805C11.1429 18.3492 10.7189 18.2336 10.3334 18.3107C7.24954 18.7347 4.47406 20.4694 2.73938 23.0907C2.39244 23.5919 2.08402 24.1701 1.85278 24.7098C1.73716 24.9411 1.77567 25.2109 1.8913 25.4422C2.19972 25.9819 2.58517 26.5216 2.9321 26.9842C3.47176 27.7167 4.05002 28.3719 4.70537 28.9887C5.24503 29.5284 5.8618 30.0295 6.47864 30.5307C9.52396 32.8051 13.1861 34 16.9639 34C20.7417 34 24.4038 32.805 27.4491 30.5307C28.0659 30.0681 28.6827 29.5284 29.2224 28.9887C29.8392 28.3719 30.4559 27.7166 30.9957 26.9842C31.3811 26.4831 31.7281 25.9819 32.0365 25.4422C32.2291 25.2109 32.2677 24.941 32.152 24.7098Z" fill="#E5E6E9"/>
</svg>
