<svg width="17" height="16" viewBox="0 0 17 16" fill="none" xmlns="http://www.w3.org/2000/svg">
<path d="M9.24999 2.75C9.24999 2.33579 8.9142 2 8.49999 2C8.08578 2 7.74999 2.33579 7.74999 2.75V7.24997H3.25C2.83579 7.24997 2.5 7.58575 2.5 7.99997C2.5 8.41418 2.83579 8.74997 3.25 8.74997H7.74999L7.75 13.25C7.75 13.6642 8.08579 14 8.5 14C8.91421 14 9.25 13.6642 9.25 13.25L9.24999 8.74997H13.75C14.1642 8.74997 14.5 8.41418 14.5 7.99997C14.5 7.58575 14.1642 7.24997 13.75 7.24997H9.24999V2.75Z" fill="#079DB7"/>
</svg>
