<svg width="20" height="20" viewBox="0 0 20 20" fill="none" xmlns="http://www.w3.org/2000/svg">
<path d="M14.5 1V5" stroke="#1C2223" stroke-width="1.5" stroke-linecap="round" stroke-linejoin="round"/>
<path d="M6.5 1V5" stroke="#1C2223" stroke-width="1.5" stroke-linecap="round" stroke-linejoin="round"/>
<path d="M2 7.5H19" stroke="#1C2223" stroke-width="1.5" stroke-linecap="round" stroke-linejoin="round"/>
<path fill-rule="evenodd" clip-rule="evenodd" d="M17.1111 3H3.88889C2.84528 3 2 3.84235 2 4.88235V17.1176C2 18.1576 2.84528 19 3.88889 19H17.1111C18.1547 19 19 18.1576 19 17.1176V4.88235C19 3.84235 18.1547 3 17.1111 3Z" stroke="#1C2223" stroke-width="1.5" stroke-linecap="round" stroke-linejoin="round"/>
<path d="M10.499 11.25C10.361 11.25 10.249 11.362 10.25 11.5C10.25 11.638 10.362 11.75 10.5 11.75C10.638 11.75 10.75 11.638 10.75 11.5C10.75 11.362 10.638 11.25 10.499 11.25" stroke="#1C2223" stroke-width="1.5" stroke-linecap="round" stroke-linejoin="round"/>
<path d="M15.499 11.25C15.361 11.25 15.249 11.362 15.25 11.5C15.25 11.638 15.362 11.75 15.5 11.75C15.638 11.75 15.75 11.638 15.75 11.5C15.75 11.362 15.638 11.25 15.499 11.25" stroke="#1C2223" stroke-width="1.5" stroke-linecap="round" stroke-linejoin="round"/>
<path d="M5.499 15.25C5.361 15.25 5.249 15.362 5.25 15.5C5.25 15.638 5.362 15.75 5.5 15.75C5.638 15.75 5.75 15.638 5.75 15.5C5.75 15.362 5.638 15.25 5.499 15.25" stroke="#1C2223" stroke-width="1.5" stroke-linecap="round" stroke-linejoin="round"/>
<path d="M10.499 15.25C10.361 15.25 10.249 15.362 10.25 15.5C10.25 15.638 10.362 15.75 10.5 15.75C10.638 15.75 10.75 15.638 10.75 15.5C10.75 15.362 10.638 15.25 10.499 15.25" stroke="#1C2223" stroke-width="1.5" stroke-linecap="round" stroke-linejoin="round"/>
</svg>
