<svg width="222" height="222" viewBox="0 0 222 222" fill="none" xmlns="http://www.w3.org/2000/svg">
<path d="M163.319 64.1713C167.344 60.637 173.527 61.0061 176.549 65.4285C184.139 76.5382 188.833 89.4314 190.122 102.929C191.72 119.659 188.006 136.467 179.507 150.965C171.008 165.463 158.157 176.915 142.779 183.693C127.401 190.471 110.278 192.231 93.8426 188.723C77.4071 185.216 62.4949 176.618 51.2242 164.152C39.9535 151.686 32.8974 135.986 31.0583 119.281C29.2192 102.576 32.6906 85.7167 40.9794 71.0973C47.6671 59.3019 57.2164 49.4488 68.6809 42.406C73.2445 39.6025 79.0399 41.7901 81.2706 46.6594C83.5013 51.5287 81.3044 57.2237 76.8531 60.2023C69.0487 65.4248 62.527 72.4175 57.8518 80.6635C51.5737 91.7364 48.9444 104.506 50.3374 117.158C51.7303 129.811 57.0747 141.703 65.6113 151.144C74.1479 160.586 85.4426 167.098 97.8911 169.755C110.34 172.412 123.309 171.079 134.956 165.945C146.604 160.811 156.337 152.137 162.775 141.156C169.212 130.175 172.025 117.445 170.815 104.774C169.913 95.3374 166.815 86.2914 161.823 78.3376C158.975 73.8012 159.295 67.7056 163.319 64.1713Z" fill="#FDCAAB"/>
<path d="M86.7204 145.551C84.3319 149.67 85.7206 155.022 90.1781 156.696C96.4533 159.052 103.152 160.179 109.907 159.982C119.548 159.702 128.919 156.738 136.967 151.423C145.015 146.108 151.421 138.653 155.464 129.896C158.296 123.761 159.891 117.158 160.187 110.461C160.398 105.705 156.022 102.326 151.296 102.906C146.57 103.485 143.32 107.831 142.716 112.554C142.271 116.038 141.296 119.45 139.809 122.668C137.111 128.512 132.836 133.487 127.465 137.035C122.094 140.582 115.84 142.56 109.406 142.747C105.862 142.85 102.341 142.407 98.9626 141.449C94.3818 140.15 89.109 141.433 86.7204 145.551Z" fill="#FDCAAB"/>
</svg>
