<svg width="175" height="166" viewBox="0 0 175 166" fill="none" xmlns="http://www.w3.org/2000/svg">
<path d="M115.258 6.84826C117.403 1.41477 123.587 -1.30631 128.721 1.48041C139.572 7.36997 149.085 15.5172 156.595 25.4169C166.244 38.1357 172.216 53.2591 173.86 69.1386C175.505 85.0181 172.758 101.044 165.921 115.47C159.083 129.896 148.417 142.169 135.084 150.949C121.751 159.73 106.264 164.682 90.3098 165.266C74.356 165.849 58.5481 162.042 44.6093 154.26C30.6704 146.477 19.1355 135.017 11.2619 121.129C5.13343 110.319 1.4062 98.3617 0.281207 86.0672C-0.251095 80.2499 4.69122 75.6436 10.5302 75.8191C16.3691 75.9946 20.873 80.8974 21.6308 86.6897C22.7315 95.1022 25.4474 103.258 29.6644 110.696C35.6279 121.215 44.3646 129.895 54.9221 135.789C65.4796 141.684 77.4527 144.568 89.5363 144.126C101.62 143.683 113.35 139.933 123.449 133.282C133.547 126.632 141.626 117.336 146.805 106.41C151.984 95.4835 154.064 83.345 152.819 71.3176C151.573 59.2903 147.05 47.8356 139.742 38.2022C134.574 31.3903 128.154 25.674 120.86 21.34C115.839 18.3559 113.113 12.2818 115.258 6.84826Z" fill="#ABDFFD"/>
</svg>
