<svg width="95" height="93" viewBox="0 0 95 93" fill="none" xmlns="http://www.w3.org/2000/svg">
<path d="M57.9848 4.45639C58.8279 1.3712 62.031 -0.478857 64.9915 0.731328C71.2484 3.28899 76.9122 7.15519 81.5905 12.0948C87.601 18.4409 91.754 26.3153 93.5969 34.8595C95.4398 43.4037 94.9018 52.2898 92.0416 60.5492C89.1814 68.8087 84.1087 76.1245 77.3765 81.6992C70.6443 87.2738 62.511 90.8935 53.863 92.1635C45.2151 93.4335 36.3845 92.3051 28.3338 88.9014C20.2831 85.4977 13.3212 79.9493 8.20703 72.861C4.22638 67.3437 1.48406 61.0582 0.137904 54.4342C-0.499047 51.2999 1.91581 48.498 5.1041 48.2449C8.29239 47.9919 11.0363 50.3914 11.7945 53.4985C12.8957 58.0113 14.8606 62.2879 17.5997 66.0843C21.4732 71.4531 26.7462 75.6556 32.844 78.2336C38.9417 80.8116 45.6301 81.6662 52.1802 80.7043C58.7302 79.7423 64.8905 77.0008 69.9896 72.7785C75.0886 68.5561 78.9307 63.015 81.0971 56.7592C83.2635 50.5034 83.671 43.7729 82.2751 37.3014C80.8793 30.8299 77.7338 24.8658 73.1814 20.0591C69.9623 16.6603 66.1271 13.9324 61.8988 12.009C58.9875 10.6847 57.1417 7.54159 57.9848 4.45639Z" fill="#ABDFFD"/>
</svg>
