<svg width="59" height="35" viewBox="0 0 59 35" fill="none" xmlns="http://www.w3.org/2000/svg">
<path d="M4.67099 34.3956C1.66607 33.3518 0.0453075 30.049 1.44503 27.1925C3.33439 23.3367 5.74195 19.7469 8.6076 16.5255C12.7524 11.8663 17.7743 8.06897 23.3866 5.3505C28.9989 2.63202 35.0917 1.04559 41.3171 0.681776C45.6213 0.430246 49.9306 0.766554 54.1273 1.67436C57.2364 2.34691 58.8232 5.66613 57.7794 8.67105C56.7356 11.676 53.4536 13.216 50.3207 12.6647C47.578 12.1821 44.7822 12.0185 41.9892 12.1818C37.2739 12.4573 32.6592 13.6589 28.4083 15.7179C24.1575 17.7769 20.3538 20.653 17.2145 24.182C15.355 26.2724 13.7501 28.5676 12.4285 31.0189C10.9189 33.8189 7.67591 35.4394 4.67099 34.3956Z" fill="#FDCAAB"/>
</svg>
